<?xml version="1.0" encoding="UTF-8"?><svg id="Layer_1" xmlns="http://www.w3.org/2000/svg" viewBox="0 0 1024 1024" fill="#FFFFFF"><path d="m512,1022.59c-68.93,0-135.79-13.5-198.75-40.13-60.8-25.72-115.41-62.53-162.29-109.42-46.89-46.89-83.7-101.49-109.42-162.29C14.91,647.79,1.41,580.93,1.41,512s13.5-135.79,40.13-198.75c25.72-60.8,62.53-115.41,109.42-162.29,46.89-46.89,101.49-83.7,162.29-109.42C376.21,14.91,443.07,1.41,512,1.41s135.79,13.5,198.75,40.13c60.8,25.72,115.41,62.53,162.29,109.42,46.89,46.89,83.71,101.49,109.42,162.29,26.63,62.95,40.13,129.82,40.13,198.75s-13.5,135.79-40.13,198.75c-25.72,60.8-62.53,115.41-109.42,162.29s-101.49,83.71-162.29,109.42c-62.95,26.63-129.82,40.13-198.75,40.13Zm0-1009.18C237.08,13.41,13.41,237.08,13.41,512s223.67,498.59,498.59,498.59,498.59-223.67,498.59-498.59S786.92,13.41,512,13.41Zm-.09,856.24c-48.33,0-95.22-9.47-139.37-28.14-42.64-18.03-80.93-43.85-113.8-76.73-32.88-32.88-58.69-71.17-76.73-113.8-18.67-44.14-28.14-91.03-28.14-139.37s9.47-95.22,28.14-139.37c18.03-42.64,43.85-80.93,76.73-113.8,32.88-32.88,71.17-58.69,113.8-76.73,44.14-18.67,91.03-28.14,139.37-28.14s95.22,9.47,139.37,28.14c42.64,18.03,80.93,43.85,113.81,76.73,32.88,32.88,58.69,71.17,76.73,113.8,18.67,44.14,28.14,91.03,28.14,139.37s-9.47,95.22-28.14,139.37c-18.03,42.64-43.85,80.92-76.73,113.8-32.88,32.88-71.17,58.7-113.81,76.73-44.14,18.67-91.03,28.14-139.37,28.14Zm0-704.08c-190.81,0-346.04,155.23-346.04,346.04s155.23,346.04,346.04,346.04,346.04-155.23,346.04-346.04-155.23-346.04-346.04-346.04Z"/><path d="m694.58,507.05c-1.22,1.61-2.45,3.22-3.6,4.89-2.12,2.83-4.25,5.73-6.37,8.62-3.86,5.21-7.72,10.49-11.71,15.77-1.22,1.61-2.45,3.22-3.67,4.83-15.77,20.66-32.57,40.81-52.58,57.03-30.89,25.1-65.13,37.33-104.72,37.33s-73.82-12.23-104.72-37.33c-19.95-16.22-36.82-36.36-52.52-57.03,4.31-5.73,8.5-11.46,12.74-17.12,1.8-2.45,3.54-4.83,5.34-7.21,35.72,47.69,72.34,89.59,139.22,89.59s103.5-41.9,139.22-89.59c1.22-1.61,2.45-3.22,3.67-4.89,2.12-2.83,4.25-5.73,6.37-8.62,3.86-5.21,7.72-10.49,11.71-15.77,1.22-1.61,2.45-3.22,3.67-4.83,15.77-20.66,32.57-40.81,52.58-57.03,24.47-19.93,51.11-31.7,80.8-35.76-47.99-117.45-163.38-200.22-298.1-200.22s-250.08,82.74-298.08,200.17c29.79,3.99,56.52,15.82,81.06,35.81,19.95,16.22,36.82,36.36,52.52,57.03-4.31,5.73-8.5,11.46-12.74,17.12-1.8,2.45-3.54,4.83-5.34,7.21-33.14-44.37-67.11-83.68-125.5-88.98-8.98,29.6-13.81,61-13.81,93.54s4.89,64.35,13.98,94.12c58.22-5.35,92.16-44.63,125.32-88.96,1.22-1.61,2.45-3.22,3.6-4.89,2.12-2.83,4.25-5.73,6.37-8.62,3.86-5.21,7.72-10.49,11.71-15.77,1.22-1.61,2.45-3.22,3.67-4.83,15.77-20.66,32.57-40.81,52.58-57.03,30.89-25.04,65.13-37.27,104.72-37.27s73.82,12.23,104.72,37.33c19.95,16.22,36.82,36.36,52.52,57.03-4.31,5.73-8.5,11.46-12.74,17.12-1.8,2.45-3.54,4.83-5.34,7.21-35.66-47.76-72.28-89.59-139.15-89.59s-103.5,41.9-139.22,89.59c-1.22,1.61-2.45,3.28-3.6,4.89-2.12,2.83-4.25,5.73-6.37,8.62-3.86,5.21-7.72,10.49-11.71,15.77-1.22,1.61-2.45,3.22-3.67,4.83-15.77,20.66-32.57,40.81-52.52,57.03-24.48,19.93-51.12,31.7-80.81,35.76,48.15,117.1,163.36,199.55,297.82,199.55s249.72-82.49,297.86-199.63c-29.64-4.07-56.24-15.84-80.68-35.75-19.95-16.22-36.82-36.36-52.58-57.03,4.31-5.73,8.5-11.46,12.74-17.12,1.8-2.45,3.54-4.83,5.34-7.21,33.15,44.31,67.07,83.56,125.24,88.95,9.09-29.77,13.98-61.37,13.98-94.11s-4.83-63.93-13.8-93.53c-58.27,5.32-92.23,44.68-125.41,88.97Zm-467.72,80.84c0,3.8-3.09,6.82-6.82,6.82s-6.82-3.09-6.82-6.82v-153.63c0-3.73,3.03-6.82,6.82-6.82s6.82,3.09,6.82,6.82v153.63Zm58.38-30.89c0,3.8-3.09,6.82-6.82,6.82s-6.82-3.09-6.82-6.82v-91.85c0-3.8,3.03-6.89,6.82-6.89s6.82,3.09,6.82,6.82v91.91Zm336.68-56.12c0-3.73,3.09-6.82,6.82-6.82s6.82,3.09,6.82,6.82v20.34c0,3.8-3.09,6.82-6.82,6.82s-6.82-3.09-6.82-6.82v-20.34Zm-58.38-54.84c0-3.8,3.09-6.82,6.82-6.82s6.82,3.09,6.82,6.82v130.08c0,3.8-3.09,6.82-6.82,6.82s-6.82-3.09-6.82-6.82v-130.08Zm-58.38-13.84c0-3.73,3.03-6.82,6.82-6.82s6.82,3.09,6.82,6.82v157.69c0,3.8-3.09,6.82-6.82,6.82s-6.82-3.09-6.82-6.82v-157.69Zm-58.38,13.84c-.06-3.8,3.03-6.82,6.82-6.82s6.82,3.09,6.82,6.82v130.08c0,3.8-3.09,6.82-6.82,6.82s-6.82-3.09-6.82-6.82v-130.08Zm-58.44,54.84c0-3.73,3.09-6.82,6.82-6.82s6.82,3.09,6.82,6.82v20.34c0,3.8-3.09,6.82-6.82,6.82s-6.82-3.09-6.82-6.82v-20.34Zm364.03,56.12c0,3.8-3.09,6.82-6.82,6.82s-6.82-3.09-6.82-6.82v-91.85c0-3.8,3.03-6.89,6.82-6.89s6.82,3.09,6.82,6.82v91.91Zm51.55,37.72c-3.8,0-6.82-3.09-6.82-6.82v-153.63c0-3.73,3.03-6.82,6.82-6.82s6.82,3.09,6.82,6.82v153.63c0,3.8-3.09,6.82-6.82,6.82Z"/><path d="m167.29,682.67c.3.74.29,1.47-.02,2.19-.31.72-.83,1.23-1.56,1.53l-71.82,28.87c-.81.33-1.57.33-2.3.03-.72-.31-1.23-.83-1.53-1.57l-3.42-8.49c-.41-1.03-.48-1.88-.19-2.55.29-.67.51-1.12.67-1.36l36.65-51.64-48.43,19.47c-.81.33-1.57.35-2.27.08-.71-.27-1.22-.81-1.55-1.62l-3.73-9.27c-.32-.81-.33-1.57-.03-2.3.31-.72.87-1.25,1.68-1.57l71.71-28.83c.81-.33,1.58-.33,2.3-.03.72.31,1.23.83,1.53,1.57l3.46,8.6c.41,1.03.45,1.87.11,2.52-.34.65-.53,1.11-.59,1.39l-35.59,51.09,47.44-19.07c.74-.3,1.47-.29,2.19.02.72.31,1.25.87,1.57,1.67l3.73,9.27Z"/><path d="m140.71,611.13c.15.78.01,1.49-.42,2.14-.44.65-1.04,1.05-1.82,1.21l-75.94,15c-.85.17-1.61.04-2.26-.4-.65-.44-1.05-1.04-1.21-1.82l-10.14-51.33c-.17-.85-.03-1.61.4-2.26.44-.65,1.08-1.06,1.94-1.23l7.7-1.52c.78-.15,1.49-.01,2.14.42.65.44,1.06,1.08,1.23,1.94l7.58,38.38,20.65-4.08-7.07-35.81c-.17-.86-.05-1.61.34-2.25.4-.64,1.03-1.05,1.88-1.22l7.23-1.43c.86-.17,1.59-.03,2.2.41.61.45,1,1.09,1.17,1.95l7.07,35.81,21.35-4.22-7.76-39.31c-.17-.85-.03-1.61.4-2.26.44-.65,1.08-1.06,1.94-1.23l7.7-1.52c.78-.15,1.49-.01,2.14.42.65.44,1.06,1.08,1.23,1.94l10.32,52.26Z"/><path d="m128.2,536.09c-.02,1.19-.37,2.12-1.06,2.78-.68.66-1.54,1.1-2.58,1.33l-76.43,12.91c-.24,0-.44.01-.6.05-.16.04-.28.05-.36.05-.71-.01-1.3-.28-1.77-.8-.47-.52-.7-1.1-.69-1.74l.17-10.46c.03-1.98.84-3.08,2.43-3.29l54.01-8.99-34.66-11.26c-.63-.25-1.28-.67-1.94-1.28-.66-.61-.99-1.5-.97-2.69l.1-6.42c.02-1.27.37-2.17,1.06-2.72.68-.54,1.34-.89,1.98-1.04l34.89-10.26-53.58-10.74c-1.58-.26-2.36-1.39-2.32-3.37l.17-10.46c.01-.63.26-1.19.74-1.65.48-.47,1.08-.7,1.79-.68.08,0,.2,0,.36,0,.16,0,.36.05.59.13l75.98,15.38c1.03.18,1.87.62,2.53,1.35.66.72.98,1.68.96,2.87l-.13,7.96c-.02,1.19-.35,2.12-1,2.78-.64.66-1.33,1.11-2.04,1.33l-39.92,12.67,39.49,13.96c.71.33,1.38.82,2,1.46.62.65.93,1.6.9,2.87l-.13,7.97Z"/><path d="m134.5,435.55c-.25.84-.72,1.44-1.41,1.81-.69.37-1.42.44-2.18.21l-74.11-22.35c-.83-.25-1.44-.72-1.81-1.42-.37-.69-.43-1.45-.18-2.29l2.71-8.99c.32-1.06.85-1.77,1.57-2.13.73-.36,1.27-.57,1.62-.63l47.61-9.61-34.29-34.56c-.26-.24-.59-.72-1-1.42-.41-.7-.45-1.58-.13-2.65l2.68-8.88c.25-.83.72-1.44,1.42-1.81.69-.37,1.46-.43,2.29-.18l74.11,22.35c.76.23,1.32.69,1.69,1.38.37.69.43,1.46.18,2.29l-2.88,9.56c-.25.84-.72,1.42-1.4,1.75-.68.33-1.4.39-2.16.16l-49.29-14.87,25.59,25.1c.57.59,1.01,1.26,1.32,2.01.31.76.32,1.63.02,2.61l-1.41,4.67c-.32,1.06-.81,1.8-1.48,2.22-.66.42-1.4.72-2.19.89l-35.2,6.77,49.29,14.87c.76.23,1.32.69,1.69,1.38.37.69.44,1.42.21,2.18l-2.88,9.56Z"/><path d="m177.2,327.5c-3.41,6.18-7.37,10.92-11.87,14.23-4.5,3.31-9.57,5.03-15.22,5.17s-11.72-1.45-18.22-4.77c-3.02-1.58-5.99-3.17-8.9-4.78-2.91-1.61-5.88-3.29-8.89-5.05-6.2-3.7-10.7-8-13.52-12.9-2.81-4.9-4.06-10.19-3.74-15.85.32-5.66,2.13-11.48,5.43-17.44,3.3-5.97,7.27-10.61,11.91-13.93,4.64-3.32,9.79-5.09,15.44-5.32,5.65-.23,11.69,1.3,18.12,4.58,3.13,1.55,6.15,3.13,9.06,4.74,2.91,1.61,5.82,3.31,8.73,5.1,6.27,3.74,10.85,8.03,13.73,12.89s4.12,10.09,3.69,15.69-2.35,11.5-5.76,17.67Zm-11.97-6.61c2.49-4.51,3.19-8.92,2.09-13.25-1.1-4.32-4.61-8.25-10.53-11.8-2.98-1.83-5.76-3.46-8.37-4.9-2.6-1.44-5.43-2.91-8.49-4.42-4.1-2.08-7.79-3.15-11.07-3.2-3.28-.05-6.12.76-8.53,2.42-2.41,1.66-4.44,3.98-6.09,6.96-1.61,2.91-2.48,5.83-2.6,8.75-.12,2.92.71,5.76,2.5,8.51,1.79,2.75,4.65,5.31,8.6,7.67,2.95,1.72,5.72,3.29,8.32,4.73,2.6,1.44,5.45,2.97,8.54,4.58,6.15,3.13,11.35,4.01,15.59,2.64,4.24-1.37,7.59-4.27,10.04-8.71Z"/><path d="m199.48,287.89c-.51.61-1.16.94-1.94,1.01-.78.07-1.48-.16-2.08-.67l-59.18-49.9c-.67-.56-1.03-1.23-1.1-2.02-.07-.78.16-1.48.67-2.08l5.9-7c.71-.85,1.44-1.3,2.16-1.37.73-.06,1.23-.08,1.51-.04l62.8,8.16-39.91-33.65c-.67-.56-1.05-1.22-1.14-1.97-.09-.75.14-1.46.7-2.13l6.44-7.64c.56-.67,1.23-1.03,2.02-1.1.78-.06,1.51.18,2.17.74l59.09,49.82c.67.56,1.03,1.24,1.1,2.02.07.78-.16,1.48-.67,2.08l-5.98,7.09c-.72.85-1.44,1.28-2.17,1.28-.73,0-1.23.05-1.51.13l-61.81-7.48,39.09,32.96c.61.51.94,1.16,1.01,1.94.07.78-.18,1.51-.74,2.17l-6.44,7.64Z"/><path d="m273.47,213.35c-5.7,4.56-11.33,7.44-16.91,8.65-5.58,1.21-10.96.83-16.15-1.16-5.19-1.99-9.96-5.51-14.31-10.56-2.19-2.61-4.51-5.45-6.96-8.51-2.45-3.06-4.73-5.98-6.85-8.76-3.92-5.29-6.25-10.63-6.97-16.04-.72-5.41.15-10.73,2.62-15.95,2.47-5.22,6.49-10.06,12.06-14.52,4.52-3.61,8.96-6.18,13.33-7.7,4.37-1.51,8.44-2.23,12.21-2.15,3.77.08,7.09.75,9.97,2,2.88,1.25,5.09,2.78,6.64,4.59.51.51.72,1.1.65,1.76-.07.67-.42,1.25-1.04,1.75l-9.56,7.65c-.62.5-1.18.74-1.69.74-.51,0-1.08-.15-1.73-.45-1.54-.9-3.34-1.57-5.4-2-2.07-.42-4.34-.35-6.83.21-2.49.57-5.16,1.99-8,4.27-4.21,3.37-6.68,7.17-7.4,11.4-.72,4.23.88,8.99,4.8,14.28,4.12,5.53,8.48,10.98,13.07,16.34,4.39,5.11,8.79,7.79,13.19,8.02,4.4.24,8.71-1.33,12.92-4.7,2.79-2.23,4.88-4.72,6.29-7.46,1.41-2.75,1.9-5.68,1.49-8.8-.41-3.12-1.93-6.32-4.56-9.6l-2.3-2.88-11.33,9.06c-.62.5-1.32.7-2.1.61-.78-.08-1.44-.47-1.99-1.15l-3.94-4.92c-.54-.68-.77-1.41-.69-2.19.09-.78.44-1.42,1.06-1.91l22.19-17.75c.68-.54,1.4-.76,2.14-.65.75.11,1.4.51,1.94,1.19l7.8,9.75c4.16,5.2,6.62,10.59,7.38,16.17.76,5.58-.13,11.07-2.68,16.45s-6.66,10.36-12.36,14.91Z"/><path d="m335.83,172.73c-6.26,3.26-12.18,5.02-17.76,5.28-5.58.27-10.76-1.1-15.54-4.11-4.78-3.01-8.96-7.69-12.54-14.05-1.64-2.99-3.23-5.96-4.77-8.91-1.54-2.95-3.07-5.99-4.61-9.13-3.12-6.51-4.49-12.58-4.12-18.23.37-5.64,2.26-10.73,5.66-15.27,3.4-4.54,8.12-8.38,14.17-11.53,6.05-3.15,11.92-4.82,17.63-5.02,5.7-.2,10.97,1.17,15.81,4.11,4.83,2.94,9.02,7.55,12.56,13.84,1.75,3.02,3.39,6.01,4.93,8.96s3.02,5.98,4.45,9.08c3.16,6.58,4.59,12.69,4.31,18.33s-2.15,10.68-5.61,15.11c-3.46,4.43-8.31,8.28-14.57,11.54Zm-6.31-12.13c4.57-2.38,7.59-5.67,9.07-9.88,1.47-4.21.73-9.42-2.25-15.65-1.47-3.17-2.89-6.07-4.26-8.71-1.37-2.64-2.92-5.43-4.63-8.38-2.26-4-4.75-6.93-7.45-8.79-2.71-1.85-5.52-2.76-8.45-2.71-2.92.05-5.9.86-8.92,2.43-2.95,1.54-5.29,3.49-7.01,5.86s-2.59,5.19-2.63,8.47c-.04,3.28.94,7,2.92,11.15,1.5,3.06,2.94,5.91,4.31,8.55,1.37,2.64,2.9,5.49,4.58,8.54,3.39,6.01,7.24,9.62,11.53,10.82,4.29,1.21,8.69.64,13.19-1.7Z"/><path d="m377.08,152.32c-.76.23-1.48.17-2.18-.2-.69-.37-1.16-.93-1.39-1.68l-22.93-74.05c-.23-.76-.17-1.48.2-2.18.36-.69.93-1.16,1.68-1.39l10.56-3.27c.76-.23,1.48-.17,2.18.2.69.37,1.16.93,1.39,1.68l19.59,63.26,36-11.15c.83-.26,1.6-.2,2.29.16.69.37,1.17.97,1.43,1.8l2.46,7.95c.23.76.17,1.48-.2,2.18-.37.7-.97,1.17-1.8,1.43l-49.29,15.26Z"/><path d="m484.22,130.8c-7.35.53-13.58-.12-18.68-1.94-5.1-1.82-9.06-4.4-11.88-7.73-2.82-3.33-4.45-6.93-4.89-10.79-.05-.71.14-1.32.58-1.83.44-.51,1.02-.79,1.73-.84l10.56-.76c1.03-.07,1.81.09,2.36.49.54.4,1.04.9,1.48,1.5.58,1.47,1.6,2.89,3.05,4.25,1.45,1.37,3.37,2.44,5.77,3.22,2.4.78,5.38,1.04,8.94.79,5.69-.41,9.87-1.66,12.54-3.76,2.67-2.1,3.89-4.77,3.66-8.01-.16-2.29-1.05-4.08-2.65-5.35-1.6-1.27-4.01-2.37-7.21-3.3-3.21-.92-7.42-1.83-12.65-2.73-6.03-1-11.12-2.36-15.25-4.09-4.14-1.73-7.32-4.06-9.56-7-2.24-2.94-3.53-6.78-3.87-11.52-.33-4.58.62-8.75,2.86-12.48,2.24-3.74,5.59-6.8,10.07-9.19,4.48-2.39,9.92-3.81,16.32-4.27,5.14-.37,9.73,0,13.79,1.1,4.05,1.1,7.46,2.68,10.23,4.75,2.77,2.07,4.94,4.34,6.51,6.8,1.57,2.47,2.48,4.93,2.73,7.37.05.63-.13,1.22-.53,1.77-.4.55-.99.85-1.78.9l-11.03.79c-.63.05-1.28-.07-1.93-.34-.66-.27-1.21-.83-1.67-1.67-.65-2.42-2.34-4.4-5.08-5.95-2.73-1.55-6.16-2.18-10.27-1.89-4.27.31-7.65,1.34-10.15,3.11-2.5,1.77-3.62,4.31-3.39,7.63.16,2.21.94,4.01,2.35,5.37,1.41,1.37,3.6,2.5,6.56,3.4,2.96.9,6.87,1.81,11.7,2.74,6.83,1.02,12.45,2.37,16.86,4.04,4.41,1.67,7.71,3.96,9.91,6.86,2.19,2.9,3.46,6.69,3.79,11.35.37,5.22-.71,9.77-3.25,13.64-2.54,3.88-6.27,6.99-11.19,9.33-4.92,2.34-10.74,3.75-17.46,4.23Z"/><path d="m544.67,129.95c-.79-.08-1.43-.42-1.93-1.03-.5-.61-.71-1.3-.63-2.09l6.46-65.43-21.89-2.16c-.79-.08-1.43-.42-1.93-1.03-.5-.61-.71-1.3-.63-2.09l.87-8.76c.08-.87.43-1.55,1.04-2.05.61-.5,1.3-.71,2.09-.63l60.35,5.96c.87.08,1.55.43,2.05,1.04.5.61.7,1.34.62,2.21l-.86,8.76c-.08.79-.42,1.43-1.03,1.93-.61.5-1.34.7-2.21.62l-21.77-2.15-6.46,65.43c-.08.79-.42,1.43-1.03,1.93-.61.5-1.34.7-2.21.62l-10.89-1.08Z"/><path d="m619.17,145.02c-6.62-1.93-12.04-4.73-16.26-8.39-4.22-3.66-6.98-8.22-8.28-13.68-1.3-5.46-.89-11.84,1.24-19.14l13.54-46.46c.24-.84.71-1.44,1.4-1.82.69-.38,1.41-.46,2.17-.23l10.39,3.03c.84.24,1.42.71,1.76,1.38.34.68.39,1.43.14,2.27l-13.54,46.46c-1.82,6.24-1.68,11.3.41,15.17,2.09,3.87,5.72,6.56,10.9,8.07,5.17,1.51,9.66,1.19,13.47-.97,3.8-2.15,6.62-6.35,8.44-12.59l13.53-46.46c.24-.84.71-1.44,1.4-1.82.69-.38,1.45-.45,2.29-.2l10.27,2.99c.84.24,1.42.71,1.76,1.38.34.68.39,1.43.14,2.27l-13.54,46.46c-2.13,7.31-5.19,12.92-9.18,16.83-3.99,3.92-8.73,6.29-14.21,7.13-5.49.84-11.58.28-18.28-1.67Z"/><path d="m663.42,158.42c-.7-.37-1.17-.93-1.4-1.68-.24-.75-.17-1.47.2-2.18l35.93-68.56c.4-.77.98-1.28,1.73-1.51.75-.23,1.47-.17,2.18.2l25.7,13.47c7.09,3.72,12.36,7.87,15.82,12.46,3.46,4.59,5.24,9.64,5.35,15.15.11,5.52-1.42,11.38-4.59,17.6-1.48,3.16-2.84,5.94-4.09,8.32-1.25,2.39-2.74,5.05-4.46,8-3.56,6.46-7.58,11.22-12.05,14.29-4.47,3.07-9.52,4.46-15.13,4.15-5.61-.3-11.93-2.29-18.95-5.97l-26.22-13.74Zm18.46-5.76l13.58,7.12c3.93,2.06,7.42,3.17,10.47,3.34,3.04.17,5.8-.69,8.27-2.58,2.46-1.88,4.8-4.85,7-8.88,1.17-2.07,2.19-3.89,3.06-5.45.86-1.56,1.69-3.14,2.48-4.74.79-1.6,1.69-3.43,2.68-5.51,2.88-5.83,3.66-10.83,2.36-15.01-1.3-4.17-4.94-7.82-10.91-10.95l-13.06-6.84-25.94,49.5Z"/><path d="m729.73,195.42c-.62-.49-.98-1.13-1.07-1.91-.09-.78.11-1.48.6-2.1l47.94-60.77c.54-.68,1.2-1.07,1.98-1.17.78-.09,1.48.11,2.1.6l41.07,32.4c.68.54,1.07,1.2,1.17,1.98.09.78-.13,1.51-.67,2.2l-4.86,6.16c-.49.62-1.13.98-1.91,1.07-.78.09-1.51-.13-2.2-.67l-30.71-24.23-13.04,16.52,28.66,22.61c.68.54,1.08,1.18,1.2,1.93.12.75-.1,1.46-.64,2.15l-4.57,5.79c-.54.69-1.19,1.06-1.94,1.12-.76.06-1.47-.18-2.16-.72l-28.66-22.61-13.48,17.08,31.46,24.82c.68.54,1.07,1.2,1.17,1.98.09.78-.13,1.51-.67,2.2l-4.86,6.16c-.49.62-1.13.98-1.91,1.07-.78.09-1.51-.13-2.2-.67l-41.82-32.99Z"/><path d="m781.17,237.38c-.52-.6-.76-1.29-.7-2.07.05-.78.38-1.43.97-1.96l58.29-50.93c.66-.57,1.38-.83,2.16-.78.78.05,1.43.38,1.96.97l6.02,6.9c.73.83,1.07,1.62,1.02,2.34-.05.73-.11,1.23-.19,1.5l-17.59,60.83,39.31-34.34c.66-.57,1.36-.85,2.12-.83.76.02,1.42.36,2,1.02l6.57,7.52c.57.66.83,1.38.78,2.16-.05.78-.41,1.46-1.06,2.04l-58.2,50.85c-.66.57-1.38.83-2.16.78-.78-.05-1.44-.38-1.96-.97l-6.1-6.98c-.73-.84-1.04-1.62-.94-2.34.1-.72.14-1.23.1-1.51l16.77-59.96-38.5,33.64c-.6.52-1.29.76-2.07.7-.78-.05-1.46-.41-2.04-1.06l-6.57-7.52Z"/><path d="m839.24,312.07c-.4-.68-.51-1.4-.31-2.16.19-.76.63-1.34,1.31-1.75l56.56-33.53-11.22-18.92c-.4-.68-.51-1.4-.31-2.16.19-.76.63-1.34,1.31-1.75l7.57-4.49c.75-.44,1.5-.57,2.27-.38.76.19,1.34.63,1.75,1.31l30.92,52.17c.44.75.57,1.5.38,2.26-.2.76-.67,1.36-1.42,1.81l-7.57,4.49c-.68.4-1.4.51-2.16.31-.76-.19-1.36-.67-1.81-1.42l-11.16-18.82-56.56,33.53c-.68.4-1.4.51-2.16.31-.76-.19-1.36-.67-1.81-1.42l-5.58-9.41Z"/><path d="m878.09,401.83c-1.99-6.6-2.59-12.67-1.81-18.2.78-5.53,3.1-10.33,6.97-14.39,3.87-4.06,9.45-7.19,16.74-9.38l46.34-13.93c.83-.25,1.6-.19,2.29.18.69.37,1.15.94,1.38,1.7l3.12,10.36c.25.83.18,1.58-.2,2.23-.38.65-.99,1.11-1.83,1.36l-46.34,13.93c-6.23,1.87-10.39,4.74-12.5,8.6-2.11,3.86-2.39,8.37-.83,13.54,1.55,5.16,4.26,8.75,8.14,10.77,3.88,2.02,8.93,2.1,15.15.22l46.34-13.93c.83-.25,1.6-.19,2.29.18.69.37,1.16.97,1.41,1.81l3.08,10.25c.25.83.18,1.58-.2,2.23-.38.65-.99,1.11-1.83,1.36l-46.34,13.93c-7.29,2.19-13.66,2.68-19.12,1.46-5.46-1.21-10.03-3.9-13.72-8.04-3.69-4.15-6.54-9.56-8.54-16.24Z"/><path d="m890.95,446.23c-.07-.79.14-1.49.64-2.09.5-.6,1.15-.94,1.94-1.02l77.07-7.17c.87-.08,1.6.13,2.21.63.6.5.94,1.15,1.02,1.94l.85,9.12c.1,1.1-.08,1.94-.54,2.5-.47.56-.81.93-1.03,1.11l-49.87,39.03,51.97-4.83c.87-.08,1.6.11,2.2.57.6.46.94,1.13,1.02,2l.92,9.94c.08.87-.13,1.6-.63,2.21-.5.6-1.19.95-2.05,1.03l-76.95,7.16c-.87.08-1.61-.13-2.21-.63-.6-.5-.94-1.15-1.02-1.94l-.86-9.23c-.1-1.11.1-1.92.61-2.45.51-.52.83-.91.97-1.16l48.7-38.8-50.91,4.73c-.79.07-1.49-.14-2.09-.64-.6-.5-.95-1.19-1.03-2.05l-.92-9.94Z"/><path d="m895.23,524.36c.04-.79.34-1.45.92-1.98.58-.53,1.27-.77,2.06-.74l77.44,3.57c.79.04,1.45.34,1.98.92.53.58.77,1.27.74,2.06l-.51,11.17c-.04.87-.35,1.55-.93,2.04-.58.49-1.26.72-2.05.68l-77.44-3.57c-.79-.04-1.45-.33-1.98-.87-.53-.54-.78-1.25-.74-2.12l.52-11.16Z"/><path d="m887.69,582.64c1.3-6.94,3.56-12.68,6.79-17.24,3.23-4.56,7.5-7.79,12.82-9.7,5.32-1.91,11.58-2.31,18.79-1.21,3.36.55,6.68,1.13,9.96,1.74,3.27.61,6.61,1.28,10.03,2,7.05,1.56,12.68,4.22,16.89,8,4.21,3.77,7.06,8.4,8.54,13.87,1.47,5.48,1.59,11.57.34,18.27-1.25,6.7-3.56,12.36-6.92,16.97-3.36,4.61-7.69,7.92-12.98,9.91-5.29,1.99-11.51,2.45-18.64,1.36-3.46-.49-6.82-1.03-10.1-1.64-3.27-.61-6.57-1.31-9.89-2.09-7.13-1.57-12.82-4.21-17.09-7.91-4.27-3.7-7.08-8.28-8.44-13.73s-1.39-11.65-.09-18.58Zm13.44,2.51c-.95,5.06-.22,9.47,2.18,13.23,2.4,3.75,6.97,6.38,13.71,7.88,3.4.8,6.56,1.47,9.48,2.01s6.07,1.05,9.45,1.52c4.55.69,8.38.54,11.51-.45,3.13-.99,5.58-2.65,7.34-4.98,1.77-2.33,2.96-5.17,3.59-8.52.61-3.27.52-6.31-.29-9.13-.8-2.81-2.49-5.24-5.05-7.29-2.56-2.05-6.09-3.58-10.58-4.58-3.34-.71-6.46-1.33-9.39-1.88s-6.1-1.1-9.55-1.66c-6.82-1.03-12.03-.23-15.63,2.4-3.6,2.63-5.86,6.44-6.79,11.43Z"/><path d="m879.02,627.19c.3-.74.8-1.26,1.53-1.57.72-.31,1.45-.31,2.19-.02l71.82,28.87c.81.33,1.37.85,1.68,1.57.31.72.31,1.45.02,2.19l-3.42,8.49c-.41,1.03-.96,1.69-1.63,1.97-.67.29-1.15.46-1.43.52l-62.2,11.9,48.43,19.47c.81.33,1.38.83,1.7,1.52.32.68.32,1.43,0,2.24l-3.73,9.27c-.33.81-.85,1.37-1.57,1.67-.72.31-1.49.3-2.3-.03l-71.71-28.83c-.81-.33-1.37-.85-1.68-1.57-.31-.72-.31-1.45-.02-2.19l3.46-8.6c.42-1.03.97-1.66,1.66-1.9.69-.24,1.15-.43,1.39-.59l61.05-12.23-47.44-19.07c-.74-.3-1.26-.81-1.57-1.53-.31-.72-.3-1.49.03-2.3l3.73-9.27Z"/><path d="m215.91,874.19c-5.71-4.67-9.78-9.42-12.24-14.24-2.45-4.82-3.56-9.42-3.32-13.78.24-4.36,1.53-8.09,3.87-11.2.45-.55,1.01-.86,1.68-.93.67-.07,1.28.12,1.83.58l8.19,6.7c.8.65,1.26,1.31,1.38,1.97.12.66.14,1.37.04,2.11-.59,1.47-.82,3.19-.71,5.18.11,1.99.77,4.09,1.98,6.31,1.21,2.22,3.19,4.46,5.95,6.71,4.42,3.62,8.32,5.58,11.7,5.89,3.38.31,6.1-.79,8.16-3.31,1.46-1.78,2.04-3.68,1.75-5.71-.29-2.03-1.28-4.48-2.97-7.35-1.7-2.87-4.14-6.43-7.32-10.68-3.7-4.87-6.46-9.35-8.27-13.45-1.82-4.1-2.53-7.99-2.14-11.66s2.1-7.35,5.11-11.03c2.91-3.56,6.46-5.93,10.66-7.11,4.19-1.18,8.73-1.1,13.63.24,4.89,1.34,9.82,4.05,14.79,8.11,3.99,3.26,7.07,6.69,9.26,10.27,2.19,3.58,3.58,7.08,4.17,10.48.59,3.41.61,6.54.05,9.42-.56,2.87-1.59,5.29-3.08,7.24-.4.49-.94.8-1.6.92-.67.12-1.3-.07-1.92-.57l-8.56-7c-.49-.4-.88-.93-1.17-1.57-.29-.65-.31-1.43-.07-2.36,1.19-2.2,1.32-4.81.4-7.81-.92-3-2.98-5.82-6.16-8.42-3.31-2.71-6.48-4.28-9.51-4.71-3.03-.43-5.6.64-7.71,3.22-1.41,1.72-2.07,3.56-1.98,5.52.08,1.96.89,4.29,2.43,6.98,1.54,2.69,3.74,6.04,6.62,10.03,4.26,5.43,7.42,10.27,9.48,14.52,2.06,4.25,2.89,8.18,2.49,11.79-.4,3.62-2.08,7.24-5.04,10.85-3.31,4.05-7.23,6.61-11.74,7.68-4.51,1.07-9.36.77-14.54-.91-5.18-1.68-10.38-4.65-15.59-8.92Z"/><path d="m261.76,905.95c-.67-.42-1.1-1.01-1.28-1.77-.18-.76-.06-1.48.36-2.16l40.83-65.9c.42-.67,1.01-1.1,1.77-1.28.76-.18,1.48-.06,2.16.36l9.5,5.89c.74.46,1.18,1.06,1.33,1.8.15.74,0,1.45-.41,2.13l-40.83,65.9c-.42.67-.99,1.11-1.72,1.31-.73.2-1.47.07-2.21-.39l-9.5-5.89Z"/><path d="m297.27,927.46c-.73-.32-1.23-.84-1.52-1.58-.29-.73-.27-1.46.05-2.18l31.1-70.88c.35-.8.89-1.34,1.62-1.63.73-.28,1.46-.27,2.19.05l8.38,3.68c1.02.45,1.66,1.01,1.92,1.69.26.68.42,1.16.47,1.44l9.95,62.54,20.98-47.8c.35-.8.87-1.35,1.57-1.65.69-.3,1.44-.28,2.24.07l9.15,4.01c.8.35,1.34.89,1.63,1.62.28.73.25,1.5-.1,2.29l-31.06,70.77c-.35.8-.89,1.34-1.62,1.62-.73.29-1.46.27-2.19-.05l-8.49-3.73c-1.02-.45-1.63-1.02-1.84-1.72-.21-.7-.4-1.17-.55-1.41l-10.32-61.4-20.55,46.82c-.32.73-.85,1.23-1.57,1.52-.73.29-1.5.25-2.29-.1l-9.15-4.01Z"/><path d="m411.34,968.94c-7.2-1.59-13.02-4.2-17.45-7.81-4.44-3.62-7.45-8.06-9.05-13.32-1.6-5.26-1.82-11.22-.68-17.87.62-3.19,1.34-6.6,2.14-10.24.8-3.64,1.61-7.11,2.43-10.42,1.75-6.43,4.48-11.71,8.19-15.85,3.71-4.13,8.34-6.9,13.89-8.32,5.55-1.41,11.88-1.33,19,.24,5.26,1.16,9.83,2.9,13.7,5.22,3.87,2.32,7.01,5.02,9.41,8.11,2.4,3.09,4.06,6.44,4.96,10.05.91,3.61.98,7.32.22,11.13-.08.71-.42,1.25-1.02,1.6-.61.35-1.26.45-1.95.3l-11.03-2.44c-.85-.19-1.5-.55-1.95-1.1-.45-.54-.68-1.35-.69-2.4-.11-5.38-1.47-9.34-4.08-11.86-2.61-2.52-6.16-4.28-10.65-5.28-5.19-1.15-9.65-.61-13.38,1.61-3.74,2.22-6.46,6.63-8.16,13.24-1.63,6.3-3.07,12.8-4.31,19.5-1.24,6.71-.63,11.85,1.82,15.44,2.45,3.59,6.27,5.95,11.46,7.1,4.49.99,8.45.88,11.89-.36,3.44-1.23,6.33-4.22,8.68-8.98.47-1.03,1.02-1.68,1.65-1.95.63-.27,1.37-.31,2.22-.12l11.03,2.44c.7.15,1.24.52,1.65,1.09.4.58.48,1.2.25,1.88-.92,3.78-2.54,7.11-4.89,10s-5.26,5.23-8.74,7.02c-3.48,1.79-7.46,2.92-11.95,3.39-4.49.47-9.36.12-14.63-1.04Z"/><path d="m470.49,977.45c-.79-.03-1.46-.33-1.99-.9-.54-.57-.79-1.26-.76-2.05l2.72-77.36c.03-.87.33-1.57.91-2.11.57-.53,1.26-.79,2.05-.76l52.28,1.84c.87.03,1.57.33,2.11.91.53.57.79,1.3.76,2.17l-.28,7.84c-.03.79-.33,1.46-.9,1.99-.58.54-1.3.79-2.17.76l-39.09-1.38-.74,21.03,36.48,1.28c.87.03,1.57.31,2.11.85.54.54.79,1.24.76,2.11l-.26,7.37c-.03.87-.33,1.55-.91,2.05-.57.5-1.29.73-2.17.7l-36.48-1.28-.77,21.75,40.04,1.41c.87.03,1.57.33,2.11.91.53.58.79,1.3.76,2.17l-.28,7.84c-.03.79-.33,1.46-.9,1.99-.58.54-1.3.79-2.17.76l-53.23-1.87Z"/><path d="m577.48,974.94c-.78.16-1.49.02-2.15-.41-.65-.43-1.06-1.04-1.22-1.81l-1.21-5.94c-.14-.7-.14-1.57.01-2.61.15-1.04.75-2.19,1.78-3.46l14.69-22.04c4.3-5.08,7.74-9.36,10.31-12.84,2.57-3.47,4.33-6.54,5.29-9.21.96-2.66,1.2-5.16.72-7.49-.71-3.5-2.24-6.14-4.59-7.92-2.35-1.79-5.58-2.26-9.69-1.42-2.72.55-4.9,1.58-6.53,3.09-1.64,1.51-2.79,3.3-3.46,5.37-.67,2.08-.97,4.28-.9,6.61.05,1.04-.23,1.83-.85,2.36-.62.53-1.28.87-1.98,1.01l-10.37,2.11c-.7.14-1.33.03-1.89-.34-.56-.37-.9-.87-1.03-1.49-.6-3.35-.56-6.74.12-10.16.68-3.42,2.03-6.6,4.06-9.56,2.02-2.96,4.71-5.55,8.06-7.77,3.35-2.22,7.32-3.79,11.9-4.73,6.45-1.31,12.01-1.31,16.68,0,4.67,1.31,8.46,3.62,11.36,6.91,2.89,3.29,4.82,7.27,5.77,11.93.74,3.65.73,7.15-.05,10.5-.77,3.35-2.19,6.72-4.26,10.09-2.06,3.37-4.66,6.92-7.79,10.62l-13.13,20.14,33.21-6.76c.85-.17,1.58-.06,2.19.34.61.4,1,1.03,1.17,1.88l1.68,8.27c.16.78.04,1.49-.35,2.13-.4.65-1.02,1.06-1.87,1.23l-55.69,11.33Z"/><path d="m685.64,946.51c-5.23,2.09-9.99,3.1-14.28,3.03-4.3-.07-8.17-1-11.61-2.78-3.45-1.78-6.47-4.22-9.08-7.32-2.61-3.1-4.83-6.63-6.67-10.59-.87-1.96-1.8-4.12-2.79-6.5-.99-2.38-1.96-4.79-2.89-7.23-.94-2.44-1.78-4.71-2.53-6.8-1.47-4.11-2.3-8.19-2.47-12.26-.18-4.07.4-7.91,1.73-11.51,1.33-3.61,3.53-6.92,6.59-9.94,3.06-3.02,7.13-5.54,12.21-7.57,5.15-2.06,9.88-3.05,14.17-2.98,4.3.07,8.17.96,11.62,2.65,3.45,1.69,6.5,4.08,9.14,7.16,2.64,3.08,4.85,6.62,6.61,10.61.97,2,1.94,4.22,2.92,6.65s1.94,4.84,2.89,7.23c.96,2.39,1.76,4.61,2.41,6.66,1.47,4.11,2.33,8.18,2.58,12.22.25,4.04-.26,7.9-1.52,11.56-1.27,3.67-3.45,7.01-6.55,10.05-3.1,3.03-7.26,5.59-12.49,7.68Zm-5.08-12.69c4.78-1.91,7.67-4.88,8.67-8.91.99-4.03.45-8.74-1.62-14.14-.71-2.19-1.49-4.38-2.36-6.55-.87-2.17-1.75-4.36-2.63-6.57-.88-2.21-1.8-4.28-2.74-6.2-2.16-5.2-5.01-8.95-8.53-11.25-3.53-2.3-7.68-2.5-12.46-.58-4.71,1.88-7.55,4.88-8.51,8.98-.96,4.1-.47,8.79,1.47,14.08.79,1.99,1.62,4.09,2.46,6.31.85,2.22,1.72,4.41,2.63,6.57.91,2.16,1.79,4.3,2.64,6.44,2.3,5.31,5.21,9.08,8.74,11.29,3.53,2.22,7.62,2.39,12.25.54Z"/><path d="m755.39,910.22c-.75.45-1.49.56-2.21.35-.73-.21-1.29-.66-1.7-1.34l-31.55-52.89-8.39,21.21c-.37.77-.89,1.29-1.56,1.56-.67.26-1.43.23-2.27-.1l-7.58-2.96c-.77-.37-1.31-.92-1.62-1.67-.3-.74-.27-1.5.1-2.27l12.33-31.31c.21-.58.49-1.03.86-1.34s.79-.61,1.27-.89l8.99-5.36c.68-.41,1.4-.51,2.16-.32.76.19,1.34.63,1.75,1.31l39.72,66.58c.41.68.51,1.4.32,2.16-.19.76-.63,1.35-1.31,1.75l-9.29,5.54Z"/><path d="m808.92,873.67c-5.26,4.33-10.42,7.12-15.46,8.34-5.05,1.23-9.66,1.21-13.85-.07-4.18-1.28-7.65-3.46-10.39-6.54-.51-.5-.71-1.08-.59-1.75.12-.66.46-1.22,1.01-1.68l8.54-7.03c.67-.55,1.35-.88,2.04-.99s1.43.08,2.23.55c2.12,1.33,4.23,2.12,6.32,2.34,2.09.23,4.11,0,6.06-.68,1.95-.68,3.75-1.71,5.41-3.07,2.2-1.81,3.84-3.91,4.92-6.28,1.07-2.37,1.43-4.9,1.07-7.58-.36-2.68-1.6-5.31-3.71-7.88-1.86-2.26-4-3.79-6.4-4.59-2.4-.79-4.89-.92-7.48-.39-2.59.54-5.04,1.76-7.37,3.68-1.71,1.41-2.94,2.79-3.69,4.12-.75,1.34-1.28,2.59-1.59,3.77-.31,1.18-.58,2.23-.81,3.13-.23.91-.71,1.66-1.44,2.27l-8.44,6.95c-.55.45-1.19.65-1.91.58-.73-.07-1.31-.38-1.77-.93l-22.64-34.04c-.59-.84-.82-1.68-.69-2.52.14-.83.54-1.52,1.21-2.08l34.51-28.42c.61-.5,1.31-.72,2.09-.64.78.08,1.42.42,1.93,1.03l5.06,6.15c.5.61.72,1.31.64,2.09-.08.78-.42,1.42-1.03,1.93l-26.53,21.84,10.85,16.17c.5-1.64,1.39-3.55,2.67-5.74,1.28-2.18,3.54-4.61,6.79-7.28,2.94-2.42,6.13-4.25,9.57-5.49,3.44-1.24,6.95-1.82,10.51-1.73,3.57.09,6.99.92,10.28,2.47,3.29,1.56,6.26,3.96,8.93,7.2,3.68,4.47,5.84,9.21,6.48,14.23.64,5.02-.15,9.98-2.37,14.89-2.22,4.91-5.87,9.46-10.95,13.64Z"/><path d="m180.8,777.73c-7.74,5.76-16.92,3.82-22.07-3.08-5.14-6.91-4.37-16.26,3.37-22.03,7.67-5.71,16.92-3.82,22.07,3.08s4.3,16.31-3.37,22.03Z"/><path d="m861.9,752.62c7.74,5.76,8.51,15.12,3.37,22.03-5.14,6.91-14.33,8.85-22.07,3.08-7.67-5.71-8.51-15.12-3.37-22.03,5.14-6.91,14.4-8.79,22.07-3.08Z"/></svg>