<svg width="800" height="800" viewBox="0 0 800 800" fill="none" xmlns="http://www.w3.org/2000/svg">
<g clip-path="url(#clip0_341_57)">
<path d="M800 400C800 620.912 620.912 800 400 800C179.086 800 0 620.912 0 400C0 179.086 179.086 0 400 0C620.912 0 800 179.086 800 400Z" fill="black"/>
<path d="M592.226 680.448C537.553 718.016 471.344 740 400 740C328.657 740 262.449 718.012 207.775 680.444C183.628 663.852 173.308 632.248 187.348 606.528C216.453 553.208 276.425 520 400 520C523.577 520 583.548 553.212 612.652 606.528C626.692 632.248 616.371 663.856 592.226 680.448Z" fill="white"/>
<path d="M399.999 400C466.276 400 520 346.276 520 280C520 213.726 466.276 160 399.999 160C333.727 160 280 213.726 280 280C280 346.276 333.727 400 399.999 400Z" fill="white"/>
</g>
<defs>
<clipPath id="clip0_341_57">
<rect width="800" height="800" fill="white"/>
</clipPath>
</defs>
</svg>
